<?xml version="1.0" encoding="utf-8"?>
<!-- Generator: Adobe Illustrator 19.2.1, SVG Export Plug-In . SVG Version: 6.00 Build 0)  -->
<svg version="1.1" id="Calque_1" xmlns="http://www.w3.org/2000/svg" xmlns:xlink="http://www.w3.org/1999/xlink" x="0px" y="0px"
	 viewBox="0 0 960 560" style="enable-background:new 0 0 960 560;" xml:space="preserve">
<style type="text/css">
	.st0{fill:#ED353D;}
	.st1{fill:#62E8AD;}
	.st2{fill:#ECF0F1;}
	.st3{fill:#34495E;}
	.st4{fill:#EF4D58;}
	.st5{opacity:0.6;}
	.st6{fill:#FFFFFF;}
	.st7{fill:none;}
	.st8{font-family:'Track-Italic';}
	.st9{font-size:173.6632px;}
	.st10{letter-spacing:22;}
	.st11{font-size:87.9307px;}
	.st12{letter-spacing:11;}
</style>
<g>
	<g>
		<path class="st0" d="M200.4,206.6c-3.6,2.9-7.1,5.9-10.8,8.8c-7.5,6-15.1,12-22.8,17.9c-1.5-5.8-3.1-11.5-4.6-17.2
			c3.1-2.4,6.2-4.9,9.4-7.3c1.3-1.1,2.7-2.1,4-3.2C183.6,206,191.8,206.4,200.4,206.6z"/>
		<g>
			<g>
				
					<rect x="247.8" y="17.6" transform="matrix(0.9914 -0.1307 0.1307 0.9914 -8.1588 34.433)" class="st1" width="20.9" height="123.6"/>
			</g>
		</g>
		<path class="st2" d="M385.9,175.1c0,0-0.1,0.1-0.1,0.1l0,0c-28.9,25.6-54.1,47.1-72.1,62c0,0,0,0,0,0c-17.3,14.4-28,22.7-29,22.8
			c-0.9,0.1-1.8,0.3-2.6,0.4c-0.9,0.1-1.7,0.2-2.6,0.3c-0.5,0.1-4.5-1.5-11.3-4.4c-7.4-3.2-18.1-8-31.4-14.2
			c-5.6-2.6-11.6-5.4-18.1-8.5c-8.7-4.1-18.2-8.7-28.3-13.6c-5.9-2.9-12-5.9-18.3-9c-4-2-8.1-4-12.3-6.1c-0.1,0-0.1-0.1-0.2-0.1
			c-0.1-4.2-0.1-8.4-0.2-12.7c5.8-2.5,11.6-5,17.4-7.5c0.7-4.6,1.4-9.1,2.1-13.7c10.1-6.8,20.1-13.6,30.2-20.4
			c10.1-6.6,30.6-18.2,59.2-21.2c24.8-2.6,44.7,2.4,55.8,6.1c11.5,4,23,7.9,34.5,11.9c0.8,1.9,1.7,3.9,2.5,5.8c1,2.3,2,4.6,3,6.9
			c4.6,0.7,9.3,1.4,13.9,2.1c1.6,0.2,3.2,0.5,4.8,0.7C383.9,166.9,384.9,171,385.9,175.1z"/>
		<path class="st3" d="M386.1,174.2c0,4.8,0,9.6,0,14.4c0,7.9,0,15.7,0,23.6c0,14.3,0.1,28.6,0.1,42.9c0,7.1,0,14.2,0,21.3
			c0,11.1,0,22.3,0.1,33.4l0,21.1c0,9.2,0,18.5,0.1,27.7c0,6.6,0,13.1,0.1,19.7c0,11.3,0,22.5,0.1,33.8c0,6.5,0,13.1,0,19.6
			c0,5.4,0,10.8,0,16.1c0,6.2,0,12.4,0,18.6c0,5.6,0,11.3,0,16.9c-3.1,2.1-6.9,4.4-11.2,6.8c-4.1,2.3-8.8,4.7-13.9,6.9
			c-5.9,2.6-12.5,5.1-19.7,7.3c-1.8,0.5-3.6,1-5.4,1.5c-1.5,0.4-3.1,0.8-4.6,1.2c-3,0.7-6,1.3-9.2,1.9c-2.5,0.4-5,0.8-7.5,1.2
			l-0.7,0.1c-2.6,0.3-5.1,0.6-7.6,0.8c-3.2,0.3-6.3,0.4-9.4,0.5c-1.6,0-3.2,0.1-4.7,0.1c-1,0-1.9,0-2.9,0c-0.9,0-1.8,0-2.7-0.1
			c-7.5-0.2-14.5-1-21-2c-3.7-0.6-7.2-1.3-10.5-2c-1.6-0.4-3.2-0.7-4.7-1.1c-0.1,0-0.2,0-0.2-0.1c-4.7-1.2-8.8-2.4-12.3-3.6
			c-0.7-2.6-1.4-5.3-2.1-7.9c-2.7-10.1-5.4-20.2-8-30.2c-1.4-5.4-2.9-10.8-4.3-16.1c-0.7-2.8-1.5-5.5-2.2-8.3
			c-1.5-5.5-2.9-10.9-4.4-16.4c-2.6-9.9-5.2-19.7-7.9-29.6c-1.5-5.5-2.9-10.9-4.3-16.4c-1.3-5-2.7-10-4-15c-1.5-5.6-3-11.2-4.5-16.8
			c-2.5-9.6-5.1-19.2-7.6-28.8l-4.4-16.7c-2-7.4-3.9-14.8-5.9-22.2c-1.5-5.8-3.1-11.5-4.6-17.3c-2.5-9.3-4.9-18.6-7.4-27.8
			c-1.5-5.8-3.1-11.5-4.6-17.2c-1.1-4-2.1-7.9-3.2-11.9c0.2,0,0.3,0,0.5,0c2.4,0.2,4.9,0.5,7.4,0.7c0.4,0,0.8,0.1,1.2,0.1
			c2.4,0.2,4.9,0.4,7.4,0.6c7.9,0.5,16.2,0.9,24.7,1.1c0,0,0,0,0,0c5.3,0.1,10.8,0.1,16.4,0c0.7,0,1.4,0,2.1,0
			c6.7-0.1,13.6-0.4,20.6-0.8c0,0,0,0,0,0c4-0.2,8-0.5,12.1-0.9c0.6,0,1.2-0.1,1.9-0.2c4.1-0.4,8.3-0.8,12.6-1.3
			c2.8-0.3,5.5-0.6,8.3-1c7.1-0.9,14-2,20.8-3.2c0.6-0.1,1.2-0.2,1.8-0.3c9.4-1.7,18.4-3.6,27.1-5.6c0,0,0,0,0,0
			c1.7-0.4,3.3-0.8,4.9-1.2c0.7-0.2,1.4-0.3,2.1-0.5c9.5-2.4,18.5-5,27.2-7.7c6.7-2.1,13.1-4.3,19.3-6.5c0.4-0.1,0.7-0.3,1.1-0.4
			c2.4-0.9,4.7-1.7,7-2.6l0,0C385.9,174.3,386,174.3,386.1,174.2z"/>
		<g>
			<path class="st4" d="M358.2,183.9c-14.9,14.4-30.3,28.3-46.1,41.9c0,0,0,0,0,0c-38.5,33-79.5,63.6-122.9,91.5l-4.4-16.7
				c28.1-18.3,55.3-37.8,81.4-58.3c19.9-15.7,39.2-32,57.9-48.9c0,0,0,0,0,0c1.7-0.4,3.3-0.8,4.9-1.2c0.7-0.2,1.4-0.3,2.1-0.5
				C340.5,189.2,349.6,186.6,358.2,183.9z"/>
		</g>
		<g>
			<path class="st4" d="M386.2,255.1c0,7.1,0,14.2,0,21.3c-54.4,44.1-113.6,83.6-176.6,117.8c-1.5-5.5-2.9-10.9-4.3-16.4
				C270.1,342.4,330.8,301.2,386.2,255.1z"/>
		</g>
		<path class="st4" d="M386.4,358.6c0,6.6,0,13.1,0.1,19.7c-49.9,32.4-102.8,61.3-158.1,86.3c-1.4-5.4-2.9-10.8-4.3-16.1
			C281,422.6,335.4,392.5,386.4,358.6z"/>
		<path class="st4" d="M386.6,447.8c0,6.2,0,12.4,0,18.6c-31.4,16.4-63.7,31.5-96.7,45.2c-0.9,0-1.8,0-2.7-0.1c-7.5-0.2-14.5-1-21-2
			c-3.7-0.6-7.2-1.3-10.5-2C300.9,490.1,344.6,470.1,386.6,447.8z"/>
		<g>
			
				<ellipse transform="matrix(1 -8.315759e-003 8.315759e-003 1 -2.6092 2.3989)" class="st1" cx="287.2" cy="315" rx="70.8" ry="70.8"/>
			<path class="st5" d="M269.3,383.4c-37.8-9.9-60.5-48.5-50.6-86.3c4.7-18.1,16.1-32.7,30.7-42c-16.6,9-29.5,24.6-34.7,44.3
				c-9.9,37.8,12.8,76.5,50.6,86.3c19.7,5.1,39.6,1.5,55.6-8.6C305.7,385.4,287.4,388.2,269.3,383.4z"/>
		</g>
		<polygon class="st6" points="266.5,345 266,282.5 323,314.7 		"/>
	</g>
	<rect x="389.6" y="248.8" class="st7" width="647.1" height="157.2"/>
	<text transform="matrix(1 0 0 1 389.6386 387.7634)"><tspan x="0" y="0" class="st6 st8 st9 st10">VIE</tspan><tspan x="351.5" y="0" class="st8 st9 st10">  </tspan></text>
	<rect x="5.7" y="239.8" class="st7" width="180.9" height="157.2"/>
	<text transform="matrix(1 0 0 1 5.6674 378.7634)"><tspan x="0" y="0" class="st6 st8 st9 st10">M</tspan><tspan x="179.4" y="0" class="st8 st9 st10">  </tspan></text>
	<g>
		<rect x="471.6" y="431.4" class="st7" width="510.3" height="111.8"/>
		<text transform="matrix(1 0 0 1 471.5624 501.7682)" class="st6 st8 st11 st12">PLANNER</text>
	</g>
</g>
</svg>
