<?xml version="1.0" encoding="UTF-8" standalone="no"?>
<svg width="45px" height="45px" viewBox="0 0 278 407" version="1.1" xmlns="http://www.w3.org/2000/svg" xmlns:xlink="http://www.w3.org/1999/xlink">
    <!-- Generator: Sketch 3.7 (28169) - http://www.bohemiancoding.com/sketch -->
    <title>Slice 1</title>
    <desc>Created with Sketch.</desc>
    <defs></defs>
    <g id="Page-1" stroke="none" stroke-width="1" fill="none" fill-rule="evenodd">
        <g id="arrows" transform="translate(0.000000, 1.000000)" fill="#ecf0f1">
            <path d="M0.147,331.322 C0.225,336.307 2.31,341.233 5.835,344.76 L60.835,399.76 C64.434,403.361 69.494,405.457 74.585,405.457 C79.676,405.457 84.736,403.361 88.335,399.76 L271.616,216.478 C275.217,212.879 277.313,207.819 277.313,202.728 C277.313,197.637 275.217,192.577 271.616,188.978 L88.335,5.697 C84.736,2.096 79.676,-2.84217094e-14 74.585,-2.84217094e-14 C69.494,-2.84217094e-14 64.434,2.096 60.835,5.697 L5.835,60.697 C2.244,64.295 0.154,69.348 0.154,74.431 C0.154,79.514 2.244,84.567 5.835,88.165 L120.397,202.728 L5.835,317.291 C2.171,320.958 0.07,326.139 0.147,331.322 L0.147,331.322 L0.147,331.322 Z" id="Shape" transform="translate(138.728977, 202.728500) rotate(180.000000) translate(-138.728977, -202.728500) "></path>
        </g>
    </g>
</svg>