<?xml version="1.0" encoding="UTF-8" standalone="no"?>
<svg width="344px" height="348px" viewBox="0 0 344 348" version="1.1" xmlns="http://www.w3.org/2000/svg" xmlns:xlink="http://www.w3.org/1999/xlink">
    <!-- Generator: Sketch 3.6.1 (26313) - http://www.bohemiancoding.com/sketch -->
    <title>Untitled</title>
    <desc>Created with Sketch.</desc>
    <defs>
        <filter x="-50%" y="-50%" width="200%" height="200%" filterUnits="objectBoundingBox" id="filter-1">
            <feOffset dx="4" dy="4" in="SourceAlpha" result="shadowOffsetOuter1"></feOffset>
            <feGaussianBlur stdDeviation="2" in="shadowOffsetOuter1" result="shadowBlurOuter1"></feGaussianBlur>
            <feColorMatrix values="0 0 0 0 0   0 0 0 0 0   0 0 0 0 0  0 0 0 0.35 0" in="shadowBlurOuter1" type="matrix" result="shadowMatrixOuter1"></feColorMatrix>
            <feMerge>
                <feMergeNode in="shadowMatrixOuter1"></feMergeNode>
                <feMergeNode in="SourceGraphic"></feMergeNode>
            </feMerge>
        </filter>
        <filter x="-50%" y="-50%" width="200%" height="200%" filterUnits="objectBoundingBox" id="filter-2">
            <feOffset dx="4" dy="4" in="SourceAlpha" result="shadowOffsetOuter1"></feOffset>
            <feGaussianBlur stdDeviation="2" in="shadowOffsetOuter1" result="shadowBlurOuter1"></feGaussianBlur>
            <feColorMatrix values="0 0 0 0 0   0 0 0 0 0   0 0 0 0 0  0 0 0 0.35 0" in="shadowBlurOuter1" type="matrix" result="shadowMatrixOuter1"></feColorMatrix>
            <feMerge>
                <feMergeNode in="shadowMatrixOuter1"></feMergeNode>
                <feMergeNode in="SourceGraphic"></feMergeNode>
            </feMerge>
        </filter>
        <linearGradient x1="62.1880245%" y1="65.7078545%" x2="-5.68112422%" y2="-102.65635%" id="linearGradient-3">
            <stop stop-color="#554EA2" offset="0%"></stop>
            <stop stop-color="#9B95D4" offset="100%"></stop>
        </linearGradient>
    </defs>
    <g id="Page-1" stroke="none" stroke-width="1" fill="none" fill-rule="evenodd">
        <g id="CALENDAR-Copy">
            <g id="Group" transform="translate(16.000000, 0.000000)">
                <path d="M0,24.9967712 C0,11.1914357 11.196234,0 25.0048639,0 L286.995136,0 C300.804941,0 312,11.187814 312,24.9991955 L312,156 L0,159 L0,24.9967712 Z" id="DERRRIERE" fill="#D4D4D4"></path>
                <circle id="Oval-2-Copy" fill="#EFEFEF" opacity="0.474055504" filter="url(#filter-1)" cx="230" cy="25" r="12"></circle>
                <circle id="Oval-2" fill="#EFEFEF" opacity="0.474055504" filter="url(#filter-2)" cx="81" cy="25" r="12"></circle>
            </g>
            <g id="HAUT" transform="translate(0.000000, 51.000000)" fill="#554EA2">
                <path d="M0.765275118,24.7990162 C-1.02397835,11.1028977 8.72554646,0 22.5198656,0 L321.77814,0 C335.582122,0 345.242252,11.0930674 343.35736,24.7573629 L326.386033,147.78894 L16.832612,147.78894 L0.765275118,24.7990162 Z" id="Combined-Shape"></path>
            </g>
            <g id="Bas" transform="translate(172.000000, 272.500000) rotate(-180.000000) translate(-172.000000, -272.500000) translate(0.000000, 198.000000)">
                <path d="M0.765275118,24.7990162 C-1.02397835,11.1028977 8.72554646,0 22.5198656,0 L321.77814,0 C335.582122,0 345.242252,11.0930674 343.35736,24.7573629 L326.386033,147.78894 L16.832612,147.78894 L0.765275118,24.7990162 Z" id="HAUT" fill="url(#linearGradient-3)"></path>
                <path d="M156.697393,-5.68434189e-14 L321.776929,-5.68434189e-14 C335.58158,-5.68434189e-14 345.261618,11.0918892 343.399212,24.7647914 L326.533846,148.582321 L252.158341,80.164906 C241.99716,70.8177185 225.106935,56.1393888 214.438085,47.3841375 L156.697393,-5.68434189e-14 Z" id="REFLET" fill="#6E66C6" opacity="0.29844916"></path>
            </g>
        </g>
    </g>
</svg>